<?xml version="1.0" encoding="UTF-8" standalone="no"?>
<!DOCTYPE svg PUBLIC "-//W3C//DTD SVG 1.1//EN" "http://www.w3.org/Graphics/SVG/1.1/DTD/svg11.dtd">
<svg xmlns="http://www.w3.org/2000/svg" version="1.1" viewBox="0.00 0.00 836.00 298.00">
<path fill="#04b7af" d="
  M 592.10 53.21
  Q 627.23 40.10 663.74 31.64
  Q 691.51 25.21 719.99 24.79
  C 741.16 24.47 763.36 28.78 780.64 40.86
  C 790.03 47.42 795.12 55.00 796.99 66.58
  Q 799.06 79.33 796.01 92.25
  C 785.93 134.94 762.59 168.67 731.76 198.17
  A 0.35 0.35 0.0 0 1 731.23 197.72
  Q 746.17 175.93 758.06 152.02
  C 763.19 141.69 768.50 128.67 770.52 118.66
  Q 773.81 102.35 766.06 88.05
  C 745.09 49.34 682.23 53.46 647.03 60.64
  C 598.70 70.50 551.49 86.13 507.79 107.55
  Q 493.69 114.47 476.72 125.23
  Q 476.31 125.49 475.83 125.46
  L 450.98 123.85
  Q 448.98 123.72 450.68 122.67
  Q 517.96 80.88 592.10 53.21
  Z"
/>
<path fill="#a9abae" d="
  M 552.43 99.91
  C 590.44 83.24 632.15 71.13 673.74 68.67
  Q 676.24 68.52 678.68 68.99
  A 0.31 0.31 0.0 0 1 678.75 69.58
  Q 676.21 70.67 674.28 71.06
  C 625.65 80.81 578.72 97.35 536.18 122.30
  Q 534.32 123.38 532.27 123.41
  Q 525.95 123.49 512.75 123.09
  Q 510.05 123.01 508.46 122.62
  A 0.40 0.40 0.0 0 1 508.35 121.89
  Q 526.58 111.25 552.43 99.91
  Z"
/>
<path fill="#04b7af" d="
  M 98.22 89.29
  Q 97.90 90.19 96.67 91.91
  Q 82.95 111.10 72.19 133.70
  C 65.78 147.15 59.77 163.74 60.65 178.23
  Q 61.75 196.32 74.13 209.12
  C 83.27 218.59 97.21 224.41 110.26 226.25
  Q 134.29 229.63 160.76 226.69
  Q 197.15 222.65 232.30 212.25
  Q 239.82 210.03 247.33 207.79
  Q 250.61 206.81 254.04 206.83
  Q 274.22 206.90 293.11 206.76
  Q 296.10 206.74 293.45 208.12
  Q 280.57 214.82 266.85 220.46
  Q 212.36 242.84 154.38 253.39
  C 128.79 258.05 102.25 260.97 76.52 255.68
  C 52.86 250.81 33.13 236.08 33.21 210.00
  C 33.25 200.77 35.27 191.36 38.61 182.08
  Q 57.67 129.22 97.59 88.91
  Q 98.80 87.69 98.22 89.29
  Z"
/>
<path fill="#373435" d="
  M 403.58 179.56
  C 398.03 193.10 383.98 196.65 370.25 195.67
  C 353.34 194.48 341.66 183.71 344.25 165.99
  C 347.37 144.70 372.53 138.86 389.99 145.26
  C 404.21 150.47 409.08 166.18 403.58 179.56
  Z
  M 368.9712 183.6452
  A 15.44 14.65 112.3 0 0 388.3843 174.9190
  A 15.44 14.65 112.3 0 0 380.6888 155.0748
  A 15.44 14.65 112.3 0 0 361.2757 163.8010
  A 15.44 14.65 112.3 0 0 368.9712 183.6452
  Z"
/>
<path fill="#373435" d="
  M 447.95 175.83
  L 442.24 175.78
  A 0.51 0.51 0.0 0 1 441.74 175.25
  L 442.11 165.80
  A 0.58 0.58 0.0 0 1 442.69 165.24
  L 463.79 165.25
  Q 464.32 165.25 464.29 165.78
  L 462.74 193.48
  Q 462.72 193.86 462.35 193.93
  Q 446.13 197.27 430.77 195.03
  C 405.93 191.41 405.19 159.74 423.54 147.77
  C 433.75 141.11 449.99 142.35 461.82 144.79
  Q 462.34 144.90 462.36 145.43
  L 462.75 156.51
  A 0.40 0.39 9.8 0 1 462.21 156.89
  C 448.42 151.55 426.35 152.18 427.16 173.00
  C 427.59 184.18 438.97 186.62 447.72 183.84
  Q 448.14 183.71 448.16 183.27
  L 448.53 176.45
  Q 448.56 175.84 447.95 175.83
  Z"
/>
<path fill="#373435" d="
  M 516.08 183.42
  C 517.87 182.07 518.05 179.46 516.41 178.08
  Q 506.11 169.38 502.86 166.17
  C 495.03 158.43 500.29 146.09 510.17 143.82
  Q 520.38 141.48 532.02 144.40
  Q 532.50 144.52 532.55 145.01
  L 533.53 155.97
  A 0.40 0.40 0.0 0 1 532.99 156.37
  C 528.16 154.48 519.88 152.44 515.84 156.45
  A 1.32 1.30 69.6 0 0 515.46 157.30
  Q 515.29 160.18 517.69 162.07
  C 524.40 167.36 535.94 173.99 533.25 184.38
  C 529.55 198.75 509.04 196.60 498.57 194.20
  Q 498.09 194.09 498.04 193.60
  L 497.03 182.66
  Q 496.90 181.35 498.10 181.91
  C 502.45 183.94 511.96 186.53 516.08 183.42
  Z"
/>
<path fill="#373435" d="
  M 640.56 183.61
  C 647.37 185.66 653.68 184.22 660.41 182.77
  Q 660.96 182.65 660.88 183.21
  L 659.15 194.24
  Q 659.09 194.64 658.69 194.71
  C 647.95 196.68 635.88 197.02 626.54 191.35
  C 617.33 185.75 614.38 176.73 615.95 166.19
  C 619.18 144.50 642.53 140.01 661.01 144.46
  Q 661.43 144.56 661.45 145.00
  L 661.90 155.54
  Q 661.92 156.15 661.33 156.03
  C 652.58 154.19 642.35 152.58 635.68 160.35
  C 631.72 164.97 630.73 171.71 633.19 177.20
  Q 635.36 182.05 640.56 183.61
  Z"
/>
<path fill="#373435" d="
  M 684.84 184.04
  C 688.48 182.52 687.81 179.41 685.30 177.26
  Q 675.47 168.84 673.01 166.49
  C 665.50 159.33 669.33 146.94 678.74 144.19
  Q 689.22 141.13 702.01 144.49
  Q 702.36 144.58 702.39 144.94
  L 703.42 156.02
  Q 703.47 156.51 703.01 156.35
  C 698.19 154.68 691.97 153.06 687.24 155.15
  C 683.61 156.75 685.90 160.69 687.92 162.34
  C 693.74 167.08 704.18 173.15 703.56 181.93
  C 702.89 191.34 693.79 195.82 685.13 195.91
  Q 676.69 196.00 668.41 194.29
  Q 667.98 194.20 667.94 193.77
  L 666.85 182.00
  A 0.33 0.33 0.0 0 1 667.32 181.67
  C 671.97 183.88 679.95 186.08 684.84 184.04
  Z"
/>
<path fill="#373435" d="
  M 214.46 168.27
  A 0.15 0.15 0.0 0 0 214.45 168.56
  Q 224.70 171.84 224.04 181.34
  C 223.56 188.17 218.91 193.77 211.99 194.47
  Q 203.09 195.37 177.29 194.71
  Q 176.80 194.70 176.84 194.21
  Q 178.86 169.38 178.80 144.47
  Q 178.80 143.89 179.38 143.89
  Q 194.63 143.77 209.73 143.53
  Q 213.76 143.46 217.31 145.18
  C 227.19 149.96 225.08 166.03 214.46 168.27
  Z
  M 193.66 154.38
  L 193.66 163.02
  A 0.70 0.70 0.0 0 0 194.36 163.72
  L 202.42 163.72
  A 5.60 4.75 -0.0 0 0 208.02 158.97
  L 208.02 158.43
  A 5.60 4.75 0.0 0 0 202.42 153.68
  L 194.36 153.68
  A 0.70 0.70 0.0 0 0 193.66 154.38
  Z
  M 192.81 174.38
  L 192.87 184.22
  A 0.53 0.53 0.0 0 0 193.40 184.75
  L 202.63 184.70
  A 5.88 5.13 -0.3 0 0 208.48 179.54
  L 208.48 178.90
  A 5.88 5.13 -0.3 0 0 202.57 173.80
  L 193.34 173.85
  A 0.53 0.53 0.0 0 0 192.81 174.38
  Z"
/>
<path fill="#373435" d="
  M 154.69 159.84
  A 0.31 0.31 0.0 0 0 154.09 159.73
  L 142.81 194.17
  A 1.03 1.03 0.0 0 1 141.83 194.88
  L 129.25 194.85
  Q 128.63 194.85 128.49 194.25
  L 120.80 160.64
  A 0.42 0.42 0.0 0 0 119.97 160.71
  L 117.93 194.25
  A 0.69 0.69 0.0 0 1 117.24 194.90
  L 105.25 194.89
  A 0.35 0.35 0.0 0 1 104.90 194.51
  L 109.18 144.19
  A 0.40 0.40 0.0 0 1 109.58 143.82
  L 129.47 143.80
  Q 130.00 143.80 130.09 144.32
  C 130.45 146.52 130.74 148.75 131.36 150.87
  Q 134.71 162.47 136.71 174.38
  Q 136.86 175.28 137.15 174.42
  L 147.47 144.35
  Q 147.66 143.80 148.24 143.80
  L 168.37 143.82
  A 0.29 0.29 0.0 0 1 168.66 144.12
  L 167.19 194.35
  A 0.55 0.55 0.0 0 1 166.64 194.89
  L 154.34 194.86
  Q 153.58 194.86 153.60 194.10
  L 154.69 159.84
  Z"
/>
<path fill="#373435" d="
  M 245.04 155.20
  A 0.37 0.37 0.0 0 0 244.66 154.83
  L 229.46 155.19
  Q 228.98 155.20 229.00 154.71
  L 229.41 144.32
  A 0.53 0.52 -88.9 0 1 229.93 143.81
  L 277.07 143.79
  Q 277.60 143.79 277.58 144.32
  L 277.21 154.72
  Q 277.20 155.13 276.78 155.12
  L 261.77 154.74
  A 0.58 0.58 0.0 0 0 261.18 155.27
  Q 259.60 174.73 259.50 194.24
  Q 259.50 194.83 258.91 194.83
  L 243.47 194.86
  Q 242.87 194.86 242.93 194.27
  Q 244.73 174.77 245.04 155.20
  Z"
/>
<path fill="#373435" d="
  M 317.24 183.86
  L 339.83 183.81
  Q 340.35 183.81 340.30 184.33
  L 339.41 194.38
  Q 339.37 194.86 338.88 194.86
  L 300.47 194.87
  A 1.03 1.03 0.0 0 1 299.45 193.73
  Q 302.01 169.08 302.24 144.29
  A 0.48 0.48 0.0 0 1 302.72 143.81
  L 318.38 143.86
  Q 318.88 143.86 318.85 144.37
  L 316.70 183.29
  Q 316.67 183.86 317.24 183.86
  Z"
/>
<rect fill="#373435" x="-8.12" y="-25.58" transform="translate(481.82,169.34) rotate(2.4)" width="16.24" height="51.16" rx="0.26"/>
<path fill="#373435" d="
  M 554.67 155.32
  A 0.48 0.48 0.0 0 0 554.18 154.84
  L 539.18 155.20
  A 0.51 0.50 0.5 0 1 538.66 154.68
  L 539.10 144.34
  A 0.56 0.56 0.0 0 1 539.66 143.80
  L 586.76 143.80
  Q 587.22 143.80 587.21 144.26
  L 586.93 154.69
  Q 586.92 155.14 586.47 155.13
  L 571.70 154.73
  Q 570.61 154.70 570.56 155.80
  L 568.94 194.32
  A 0.53 0.52 0.6 0 1 568.42 194.82
  L 553.21 194.89
  A 0.60 0.60 0.0 0 1 552.61 194.24
  Q 554.42 174.82 554.67 155.32
  Z"
/>
<rect fill="#373435" x="-8.12" y="-25.56" transform="translate(599.82,169.32) rotate(2.4)" width="16.24" height="51.12" rx="0.27"/>
<path fill="#a9abae" d="
  M 213.45 252.88
  C 253.11 242.93 292.67 227.88 327.58 206.40
  Q 327.94 206.19 328.35 206.19
  L 354.97 206.65
  Q 356.04 206.66 355.11 207.19
  C 311.40 232.37 259.96 251.80 208.36 259.27
  Q 193.62 261.40 178.91 261.07
  A 0.13 0.13 0.0 0 1 178.89 260.82
  Q 196.01 257.25 213.45 252.88
  Z"
/>
<path fill="#373435" d="
  M 392.1528 231.6562
  A 9.77 9.16 88.4 0 1 382.7236 222.1458
  A 9.77 9.16 88.4 0 1 391.6072 212.1238
  A 9.77 9.16 88.4 0 1 401.0364 221.6342
  A 9.77 9.16 88.4 0 1 392.1528 231.6562
  Z
  M 391.7698 229.5199
  A 7.67 6.58 90.3 0 0 398.3899 221.8845
  A 7.67 6.58 90.3 0 0 391.8502 214.1801
  A 7.67 6.58 90.3 0 0 385.2301 221.8155
  A 7.67 6.58 90.3 0 0 391.7698 229.5199
  Z"
/>
<path fill="#373435" d="
  M 407.96 221.25
  C 407.05 228.99 414.74 231.47 420.26 227.59
  A 1.44 1.44 0.0 0 0 419.31 224.98
  L 418.55 225.05
  Q 418.01 225.10 417.97 224.55
  L 417.89 223.33
  Q 417.85 222.77 418.42 222.77
  L 422.15 222.78
  Q 422.77 222.78 422.77 223.40
  L 422.76 228.37
  A 0.84 0.81 -18.3 0 1 422.41 229.04
  C 416.79 233.01 408.35 232.58 405.83 225.19
  C 402.73 216.05 411.86 208.82 420.24 214.00
  Q 421.70 214.91 421.78 215.58
  A 1.21 1.21 0.0 0 1 419.61 216.44
  Q 418.07 214.39 415.48 214.29
  Q 408.81 214.04 407.96 221.25
  Z"
/>
<path fill="#373435" d="
  M 451.00 217.11
  A 1.06 1.05 -54.5 0 1 448.97 217.45
  Q 447.17 213.03 442.00 214.62
  C 439.21 215.48 438.78 218.87 441.76 219.58
  Q 444.75 220.31 447.75 221.16
  C 451.37 222.20 453.14 226.27 450.53 229.24
  C 446.91 233.36 437.67 232.10 436.94 225.79
  A 0.92 0.92 0.0 0 1 438.70 225.33
  Q 441.13 231.09 447.15 228.91
  C 449.83 227.94 450.65 224.60 447.40 223.66
  C 443.88 222.63 435.74 221.46 437.75 215.74
  C 439.63 210.37 451.31 211.50 451.00 217.11
  Z"
/>
<path fill="#373435" d="
  M 486.91 226.76
  C 489.53 231.30 495.95 230.07 497.63 225.24
  A 1.02 1.02 0.0 0 1 499.61 225.65
  C 499.20 230.91 492.72 232.48 488.60 230.83
  C 480.29 227.50 481.97 211.99 492.50 212.25
  Q 497.60 212.38 499.49 217.14
  A 0.66 0.66 0.0 0 1 498.88 218.04
  L 498.14 218.04
  Q 497.70 218.04 497.47 217.67
  C 494.04 212.10 487.85 213.39 486.08 219.21
  Q 484.86 223.20 486.91 226.76
  Z"
/>
<path fill="#373435" d="
  M 516.82 226.54
  A 2.43 2.43 0.0 0 0 515.26 223.74
  C 512.54 222.78 508.96 222.44 506.64 220.79
  C 503.35 218.46 505.10 213.80 508.48 212.70
  Q 513.83 210.96 517.56 214.91
  Q 518.84 216.27 518.30 217.53
  A 0.99 0.98 44.3 0 1 516.50 217.55
  Q 514.39 212.96 509.20 214.71
  Q 507.48 215.29 507.27 217.05
  A 2.22 2.21 11.2 0 0 508.88 219.45
  Q 511.88 220.30 514.75 220.98
  C 520.48 222.33 520.37 229.56 515.10 231.12
  C 511.14 232.30 506.77 231.41 504.59 227.45
  Q 503.72 225.85 504.86 225.01
  A 0.81 0.80 59.6 0 1 506.08 225.33
  Q 508.49 230.72 514.11 229.14
  C 515.32 228.80 516.57 227.71 516.82 226.54
  Z"
/>
<path fill="#373435" d="
  M 369.81 229.04
  L 378.24 228.99
  A 0.47 0.47 0.0 0 1 378.70 229.36
  L 378.98 230.67
  A 0.47 0.47 0.0 0 1 378.52 231.24
  L 367.47 231.29
  A 0.47 0.47 0.0 0 1 367.00 230.82
  L 366.99 213.08
  A 0.47 0.47 0.0 0 1 367.39 212.62
  L 368.87 212.39
  A 0.47 0.47 0.0 0 1 369.42 212.85
  L 369.33 228.56
  A 0.47 0.47 0.0 0 0 369.81 229.04
  Z"
/>
<rect fill="#373435" x="428.89" y="212.58" width="2.30" height="18.72" rx="0.64"/>
<path fill="#373435" d="
  M 461.18 214.52
  L 456.25 214.52
  A 0.71 0.69 -5.5 0 1 455.56 213.96
  Q 455.28 212.60 456.49 212.60
  Q 463.18 212.56 469.85 212.56
  A 0.72 0.72 0.0 0 1 470.56 213.18
  L 470.64 213.78
  Q 470.74 214.53 470.00 214.53
  L 464.89 214.52
  Q 464.29 214.52 464.29 215.11
  L 464.24 230.62
  Q 464.24 231.23 463.63 231.25
  L 462.44 231.29
  Q 461.81 231.31 461.81 230.69
  L 461.84 215.18
  Q 461.84 214.52 461.18 214.52
  Z"
/>
<rect fill="#373435" x="-1.16" y="-9.42" transform="translate(476.61,221.95) rotate(-0.1)" width="2.32" height="18.84" rx="0.80"/>
<path fill="#373435" d="
  M 542.33 223.08
  Q 545.81 226.40 547.90 230.75
  Q 548.11 231.18 547.64 231.30
  C 544.95 232.02 542.88 227.32 541.59 225.46
  C 539.78 222.82 537.77 222.44 534.82 222.89
  Q 534.26 222.97 534.26 223.53
  L 534.23 230.68
  A 0.69 0.69 0.0 0 1 533.59 231.37
  L 532.40 231.47
  A 0.59 0.59 0.0 0 1 531.76 230.88
  L 531.80 213.22
  A 0.57 0.56 88.4 0 1 532.33 212.65
  C 535.62 212.45 543.09 211.65 545.49 214.18
  C 548.62 217.50 546.15 221.18 542.44 222.59
  Q 542.00 222.75 542.33 223.08
  Z
  M 534.21 215.19
  L 534.23 220.13
  A 0.70 0.70 0.0 0 0 534.93 220.83
  L 540.61 220.81
  A 3.84 2.99 -0.2 0 0 544.44 217.80
  L 544.44 217.44
  A 3.84 2.99 -0.2 0 0 540.59 214.47
  L 534.91 214.49
  A 0.70 0.70 0.0 0 0 534.21 215.19
  Z"
/>
<path fill="#373435" d="
  M 555.59 220.52
  L 565.20 220.51
  A 0.43 0.43 0.0 0 1 565.63 220.95
  L 565.59 222.16
  A 0.43 0.43 0.0 0 1 565.16 222.58
  L 555.61 222.51
  A 0.43 0.43 0.0 0 0 555.18 222.94
  L 555.14 228.61
  A 0.43 0.43 0.0 0 0 555.57 229.04
  L 566.51 228.99
  A 0.43 0.43 0.0 0 1 566.95 229.44
  L 566.87 230.83
  A 0.43 0.43 0.0 0 1 566.44 231.24
  L 553.18 231.29
  A 0.43 0.43 0.0 0 1 552.75 230.86
  L 552.72 213.00
  A 0.43 0.43 0.0 0 1 553.15 212.57
  L 565.86 212.53
  A 0.43 0.43 0.0 0 1 566.29 212.95
  L 566.30 214.12
  A 0.43 0.43 0.0 0 1 565.87 214.56
  L 555.63 214.52
  A 0.43 0.43 0.0 0 0 555.20 214.95
  L 555.16 220.09
  A 0.43 0.43 0.0 0 0 555.59 220.52
  Z"
/>
<path fill="#373435" d="
  M 572.11 213.18
  A 0.68 0.68 0.0 0 1 572.79 212.50
  L 579.69 212.51
  A 8.23 7.96 -89.9 0 1 587.63 220.75
  L 587.63 223.05
  A 8.23 7.96 -89.9 0 1 579.65 231.27
  L 572.75 231.26
  A 0.68 0.68 0.0 0 1 572.07 230.58
  L 572.11 213.18
  Z
  M 574.40 215.42
  L 574.34 228.14
  A 0.92 0.92 0.0 0 0 575.25 229.07
  L 579.39 229.09
  A 6.03 5.80 -89.7 0 0 585.22 223.09
  L 585.24 220.59
  A 6.03 5.80 -89.7 0 0 579.47 214.53
  L 575.33 214.51
  A 0.92 0.92 0.0 0 0 574.40 215.42
  Z"
/>
<path fill="#373435" d="
  M 595.81 220.53
  L 605.60 220.51
  A 0.42 0.42 0.0 0 1 606.02 220.94
  L 605.99 222.16
  A 0.42 0.42 0.0 0 1 605.57 222.57
  L 595.89 222.52
  A 0.42 0.42 0.0 0 0 595.47 222.93
  L 595.38 228.58
  A 0.42 0.42 0.0 0 0 595.80 229.01
  L 606.56 228.93
  A 0.42 0.42 0.0 0 1 606.98 229.32
  L 607.11 230.77
  A 0.42 0.42 0.0 0 1 606.69 231.23
  L 593.50 231.26
  A 0.42 0.42 0.0 0 1 593.08 230.84
  L 593.13 212.98
  A 0.42 0.42 0.0 0 1 593.55 212.56
  L 606.34 212.56
  A 0.42 0.42 0.0 0 1 606.76 212.94
  L 606.87 214.08
  A 0.42 0.42 0.0 0 1 606.45 214.54
  L 595.83 214.53
  A 0.42 0.42 0.0 0 0 595.41 214.95
  L 595.39 220.11
  A 0.42 0.42 0.0 0 0 595.81 220.53
  Z"
/>
<path fill="#373435" d="
  M 614.98 222.95
  L 615.01 230.91
  A 0.37 0.37 0.0 0 1 614.67 231.28
  L 613.05 231.43
  A 0.37 0.37 0.0 0 1 612.65 231.07
  L 612.55 212.93
  A 0.37 0.37 0.0 0 1 612.92 212.56
  L 624.95 212.55
  A 0.37 0.37 0.0 0 1 625.32 212.93
  L 625.31 214.17
  A 0.37 0.37 0.0 0 1 624.93 214.54
  L 615.36 214.52
  A 0.37 0.37 0.0 0 0 614.99 214.89
  L 614.96 220.21
  A 0.37 0.37 0.0 0 0 615.33 220.58
  L 623.56 220.55
  A 0.37 0.37 0.0 0 1 623.93 220.93
  L 623.91 222.30
  A 0.37 0.37 0.0 0 1 623.53 222.67
  L 615.36 222.57
  A 0.37 0.37 0.0 0 0 614.98 222.95
  Z"
/>
<rect fill="#373435" x="630.87" y="212.53" width="2.40" height="18.82" rx="0.65"/>
<path fill="#373435" d="
  M 652.10 226.27
  L 652.01 213.26
  Q 652.00 212.52 652.74 212.55
  L 653.91 212.59
  Q 654.46 212.61 654.46 213.16
  L 654.46 230.20
  A 1.46 1.46 0.0 0 1 651.79 231.02
  L 642.33 216.90
  Q 641.84 216.17 641.84 217.05
  L 641.83 230.87
  A 0.55 0.54 -87.1 0 1 641.24 231.41
  L 640.07 231.31
  Q 639.62 231.27 639.62 230.82
  L 639.60 213.75
  A 1.50 1.50 0.0 0 1 642.34 212.91
  L 651.45 226.47
  A 0.36 0.35 27.8 0 0 652.10 226.27
  Z"
/>
<path fill="#373435" d="
  M 663.33 229.05
  L 674.08 228.94
  A 0.42 0.42 0.0 0 1 674.50 229.30
  L 674.71 230.75
  A 0.42 0.42 0.0 0 1 674.30 231.23
  L 661.05 231.25
  A 0.42 0.42 0.0 0 1 660.63 230.83
  L 660.66 212.98
  A 0.42 0.42 0.0 0 1 661.08 212.56
  L 673.83 212.55
  A 0.42 0.42 0.0 0 1 674.25 212.95
  L 674.32 214.09
  A 0.42 0.42 0.0 0 1 673.90 214.54
  L 663.30 214.52
  A 0.42 0.42 0.0 0 0 662.88 214.94
  L 662.89 220.12
  A 0.42 0.42 0.0 0 0 663.31 220.54
  L 673.12 220.51
  A 0.42 0.42 0.0 0 1 673.55 220.95
  L 673.50 222.14
  A 0.42 0.42 0.0 0 1 673.08 222.55
  L 663.34 222.50
  A 0.42 0.42 0.0 0 0 662.92 222.92
  L 662.90 228.62
  A 0.42 0.42 0.0 0 0 663.33 229.05
  Z"
/>
<path fill="#373435" d="
  M 679.86 213.08
  A 0.59 0.59 0.0 0 1 680.45 212.49
  L 687.55 212.49
  A 8.20 7.97 90.0 0 1 695.52 220.69
  L 695.52 223.09
  A 8.20 7.97 90.0 0 1 687.55 231.29
  L 680.45 231.29
  A 0.59 0.59 0.0 0 1 679.86 230.70
  L 679.86 213.08
  Z
  M 682.49 215.00
  L 682.37 228.56
  A 0.52 0.52 0.0 0 0 682.89 229.09
  L 687.09 229.13
  A 5.78 5.68 0.5 0 0 692.92 223.50
  L 692.94 220.26
  A 5.78 5.68 0.5 0 0 687.21 214.53
  L 683.01 214.49
  A 0.52 0.52 0.0 0 0 682.49 215.00
  Z"
/>
</svg>
